# xmcd
#
# Track frame offsets: 
#        150
#        10703
#        15415
#        20545
#        23360
#        29520
#        38785
#        45485
#        55338
#        66828
#        70253
#        81510
#        91713
#        98325
#        104893
#        118160
#        129478
#        146130
#        158085
#        170715
#        188918
#        192235
#        200525
#        220833
#        229428
#        242425
#        259348
#        270930
#        283820
#        300073
#
# Disc length: 4146 seconds
#
# Revision: 0
# Processed by: cddbd v1.5.2PL0 Copyright (c) Steve Scherf et al.
# Submitted via: ExactAudioCopy v0.99pb4
#
DISCID=9c10301e
DTITLE=Rudolf Buchbinder - Haydn: Piano Sonatas [CD1]
DYEAR=1988
DGENRE=Classical
TTITLE0=Sonata No. 1 in G major Hob XVI/8, I. Allegro
TTITLE1=Sonata No. 1 in G major Hob XVI/8, II. Menuet
TTITLE2=Sonata No. 1 in G major Hob XVI/8, III. Andante
TTITLE3=Sonata No. 1 in G major Hob XVI/8, IV. Allegro
TTITLE4=Sonata No. 2 in C major Hob XVI/7, I. Allegro Moderato
TTITLE5=Sonata No. 2 in C major Hob XVI/7, II. Menuet
TTITLE6=Sonata No. 2 in C major Hob XVI/7, III. Finale: Allegro
TTITLE7=Sonata No. 3 in F major Hob XVI/9, I. Allegro
TTITLE8=Sonata No. 3 in F major Hob XVI/9, II. Menuet
TTITLE9=Sonata No. 3 in F major Hob XVI/9, III. Scherzo (Allegro)
TTITLE10=Sonata No. 4 in G major Hob XVI/G 1, I. Allegro
TTITLE11=Sonata No. 4 in G major Hob XVI/G 1, II. Menuetto
TTITLE12=Sonata No. 4 in G major Hob XVI/G 1, III. Finale: Presto
TTITLE13=Sonata No. 5 in G major Hob XVI/11, I. Presto
TTITLE14=Sonata No. 5 in G major Hob XVI/11, II. Andante
TTITLE15=Sonata No. 5 in G major Hob XVI/11, III. Menuet
TTITLE16=Sonata No. 6 in C major Hob XVI/10, I. Moderato
TTITLE17=Sonata No. 6 in C major Hob XVI/10, II. Menuet
TTITLE18=Sonata No. 6 in C major Hob XVI/10, III. Finale: Presto
TTITLE19=Sonata No. 7 in D major Hob XVII/D1, I. Tema, Variationen I-I
TTITLE19=II (Moderato)
TTITLE20=Sonata No. 7 in D major Hob XVII/D1, II. Menuet
TTITLE21=Sonata No. 7 in D major Hob XVII/D1, III. Finale: (Allegro)
TTITLE22=Sonata No. 8 in A major Hob XVI/5, I. Allegro
TTITLE23=Sonata No. 8 in A major Hob XVI/5, II. Menuet
TTITLE24=Sonata No. 8 in A major Hob XVI/5, III. Presto
TTITLE25=Sonata No. 9 in D major Hob XVI/4, I. (Moderato)
TTITLE26=Sonata No. 9 in D major Hob XVI/4, II. Menuet
TTITLE27=Sonata No. 10 in C major Hob XVI/1, I. Allegro
TTITLE28=Sonata No. 10 in C major Hob XVI/1, II. Adagio
TTITLE29=Sonata No. 10 in C major Hob XVI/1, III. Menuet
EXTD=
EXTT0=
EXTT1=
EXTT2=
EXTT3=
EXTT4=
EXTT5=
EXTT6=
EXTT7=
EXTT8=
EXTT9=
EXTT10=
EXTT11=
EXTT12=
EXTT13=
EXTT14=
EXTT15=
EXTT16=
EXTT17=
EXTT18=
EXTT19=
EXTT20=
EXTT21=
EXTT22=
EXTT23=
EXTT24=
EXTT25=
EXTT26=
EXTT27=
EXTT28=
EXTT29=
PLAYORDER=
